PathFileType	4	(X/Y/Z)	C:/Users/opensim2020/Desktop/walking_exp_matlab/subject02_walking05_straight_04.trc	
DataRate	CameraRate	NumFrames	NumMarkers	Units	OrigDataRate	OrigDataStartFrame	OrigNumFrames	
100.00	100.00	5	42	mm	100.00	2928	220	
Frame#	Time	LFHD			RFHD			LBHD			RBHD			C7			T10			CLAV			STRN			RBAK			LSHO			LUPA			LELB			LFRM			LWRA			LWRB			LFIN			RSHO			RUPA			RELB			RFRM			RWRA			RWRB			RFIN			LASI			RASI			LPSI			RPSI			LTHI			LKNE			LTIB			LANK			LHEE			LTOE			RTHI			RKNE			RTIB			RANK			RHEE			RTOE			*39			*40			*41			
		X1	Y1	Z1	X2	Y2	Z2	X3	Y3	Z3	X4	Y4	Z4	X5	Y5	Z5	X6	Y6	Z6	X7	Y7	Z7	X8	Y8	Z8	X9	Y9	Z9	X10	Y10	Z10	X11	Y11	Z11	X12	Y12	Z12	X13	Y13	Z13	X14	Y14	Z14	X15	Y15	Z15	X16	Y16	Z16	X17	Y17	Z17	X18	Y18	Z18	X19	Y19	Z19	X20	Y20	Z20	X21	Y21	Z21	X22	Y22	Z22	X23	Y23	Z23	X24	Y24	Z24	X25	Y25	Z25	X26	Y26	Z26	X27	Y27	Z27	X28	Y28	Z28	X29	Y29	Z29	X30	Y30	Z30	X31	Y31	Z31	X32	Y32	Z32	X33	Y33	Z33	X34	Y34	Z34	X35	Y35	Z35	X36	Y36	Z36	X37	Y37	Z37	X38	Y38	Z38	X39	Y39	Z39	X40	Y40	Z40	X41	Y41	Z41	X42	Y42	Z42	

193	1.920	1471.96997	-825.57019	1715.49219	1333.43274	-790.25873	1693.71387	1512.56067	-687.36072	1669.80664	1376.75110	-641.73578	1649.79919	1437.06628	-594.99512	1524.15723	1416.43530	-545.80469	1242.59460	1449.87012	-732.83112	1452.51294	1440.78784	-787.55322	1284.68005	1362.58521	-541.79266	1346.03613	1618.55530	-659.61792	1491.04407	1693.09216	-648.37811	1286.62842	1700.78027	-646.89044	1147.16589	1718.04993	-653.92017	1017.69659	1691.59460	-708.19818	887.03992	1726.27856	-663.39716	894.70129	1725.25208	-674.05872	826.59412	1252.25745	-677.32819	1494.58032	1159.07422	-644.39777	1311.01379	1131.78992	-655.18359	1164.91162	1107.86890	-695.49878	1051.79248	1118.57129	-762.21851	934.00500	1092.36560	-713.60248	923.45679	1082.62305	-759.69177	868.63226	1569.24585	-772.56171	982.03406	1312.13477	-799.53241	980.69183	1463.46045	-572.61798	1023.83728	1348.64453	-578.75769	1029.44763	1628.20471	-742.33838	672.70013	1614.64880	-743.09723	488.34439	1592.38818	-601.47083	372.08505	1559.50549	-481.80075	185.73198	1497.79639	-455.30087	173.60413	1610.06689	-567.90814	67.02852	1243.13318	-752.10809	671.17737	1291.68359	-763.00751	462.38345	1290.51563	-722.52600	277.11502	1336.63989	-703.94385	86.70390	1394.55823	-670.66370	34.60229	1317.67053	-855.16418	32.21687	1400.61609	-721.53033	1799.00513	-3356.84424	2845.83301	1033.73877			 
194	1.930	1470.99854	-834.97327	1716.26440	1332.57251	-799.41376	1694.71228	1511.95752	-696.94312	1670.77490	1376.13977	-650.98840	1650.90808	1436.69861	-603.27911	1525.63953	1414.95947	-554.25110	1244.06860	1449.15295	-741.81787	1453.48486	1439.78503	-795.96680	1285.60876	1361.52844	-549.90063	1348.06689	1617.62817	-668.40216	1491.97986	1691.92664	-654.97729	1287.45813	1699.71509	-650.85883	1148.28088	1716.64783	-656.23175	1018.68756	1690.34790	-708.83405	887.19379	1724.79138	-664.02344	895.49475	1723.44995	-673.47467	827.14404	1251.72302	-686.53058	1496.30994	1157.15588	-655.46210	1313.19519	1129.41309	-666.92767	1166.99585	1106.30713	-708.82263	1054.47742	1117.37561	-777.44342	937.79077	1090.61768	-728.95764	926.43341	1081.09009	-776.56873	872.54828	1566.99817	-781.80151	984.48328	1310.17383	-806.71777	981.57037	1463.42126	-580.90405	1025.06531	1348.46155	-586.35107	1030.18176	1627.42798	-755.32861	675.04706	1613.42725	-759.75146	490.19003	1591.98181	-621.45874	369.36447	1558.66870	-507.76959	179.20587	1497.04150	-481.42401	165.77881	1609.46155	-598.95795	64.71958	1243.09155	-755.18927	671.08099	1291.60010	-764.77692	462.28403	1290.43506	-723.76337	277.14957	1336.56897	-704.25226	86.96763	1394.59839	-670.66357	34.69474	1317.51953	-855.13147	32.20497	1400.03284	-730.89771	1800.04626	-3360.15723	2845.06201	1033.98120			 
195	1.940	1470.22119	-844.44836	1716.95630	1331.84277	-808.60663	1695.56152	1511.38220	-706.40631	1671.65222	1375.59302	-660.16101	1651.95972	1436.01465	-612.19031	1526.95483	1413.67725	-562.55408	1245.43750	1448.43628	-750.65887	1454.34253	1438.64380	-804.25159	1286.36169	1359.64209	-559.04761	1349.50513	1616.80774	-677.10822	1492.69763	1691.11768	-661.33673	1288.21436	1698.52380	-654.98254	1149.20178	1715.59741	-658.54266	1019.59430	1689.19092	-709.78564	887.34058	1723.31934	-664.84509	896.14288	1721.77222	-673.40692	827.59302	1251.02917	-696.04193	1497.99951	1155.18933	-666.44287	1315.06238	1127.04846	-678.43463	1168.98169	1104.51697	-722.22992	1057.12500	1116.22192	-792.83936	941.37036	1089.00757	-744.54614	929.34296	1079.81567	-793.19904	876.27582	1564.51428	-791.30719	986.96240	1308.12683	-813.61768	982.19763	1463.78430	-589.23950	1026.24231	1348.57703	-593.86444	1030.72656	1626.85400	-768.11896	677.49402	1612.34399	-775.99835	491.90985	1591.69360	-641.39545	366.10443	1557.91101	-534.40149	172.08432	1496.28455	-508.40369	157.37088	1609.17310	-630.31653	62.15054	1242.94812	-758.38525	670.93323	1291.45435	-767.08643	462.49710	1290.43933	-725.13684	277.19711	1336.63123	-704.41302	87.10027	1394.82129	-670.85382	34.95186	1317.38843	-855.04553	32.16418	1399.53418	-740.39343	1800.95239	-3360.19458	2845.10938	1033.82581			 
196	1.950	1469.51501	-853.86548	1717.44543	1331.21448	-817.71014	1696.28101	1510.87061	-715.82751	1672.38684	1375.22974	-669.38043	1652.91064	1435.24951	-621.15009	1528.04248	1412.68408	-570.78448	1246.66479	1447.76819	-759.51721	1455.13965	1437.48901	-812.62390	1287.12378	1358.65796	-567.00934	1351.23315	1615.99927	-685.76965	1493.14111	1690.75378	-667.48364	1289.07556	1697.32935	-659.28302	1149.86841	1714.20740	-661.14423	1020.09717	1688.18274	-711.02283	887.50421	1721.95996	-665.86499	896.75116	1720.31860	-673.81104	828.07288	1250.49304	-705.08026	1499.46521	1153.52197	-676.78003	1316.71704	1124.87207	-690.13495	1170.86206	1102.82739	-736.04749	1059.55286	1115.32642	-807.70300	944.97565	1087.53149	-760.09448	932.18231	1078.76526	-809.77429	880.11719	1561.84155	-800.88666	989.29852	1305.99731	-820.39789	982.59784	1464.40344	-597.65625	1027.33972	1349.03809	-601.25110	1031.11987	1626.43201	-780.65741	679.76196	1611.32849	-791.66956	493.47946	1591.35437	-661.26819	362.25220	1557.42090	-561.40942	164.55788	1495.85010	-535.71613	148.57634	1609.15991	-662.13263	59.41180	1242.72314	-761.90161	670.95673	1291.35474	-768.58447	461.77747	1290.52393	-726.46234	277.22626	1336.72437	-704.58521	87.23200	1394.91296	-670.89392	35.04314	1317.23792	-854.97369	32.12107	1399.11877	-749.81488	1801.73035	-3360.29883	2845.22583	1033.87988			 
197	1.960	1468.96289	-863.39441	1717.92029	1330.66150	-826.80511	1696.83691	1510.62354	-725.28314	1672.98083	1374.81897	-678.36841	1653.74573	1434.79761	-630.24524	1529.25549	1411.89417	-579.01819	1247.67822	1447.06689	-768.20966	1455.77625	1436.15234	-820.91553	1287.80237	1356.87830	-575.95081	1352.42456	1615.31396	-694.40216	1493.44202	1690.14856	-673.68140	1289.60156	1696.56519	-663.35022	1150.60022	1713.32678	-663.72595	1020.79211	1687.23645	-712.62274	887.64325	1720.58875	-667.18103	897.14496	1718.99768	-674.78583	828.46747	1249.90088	-714.16827	1500.73926	1152.42175	-686.48627	1318.11658	1122.51416	-701.81989	1172.48389	1101.15527	-749.12817	1061.61609	1114.42859	-822.85541	948.56628	1086.09839	-775.60242	934.91766	1077.78088	-826.32898	883.69879	1559.25183	-810.66345	991.37970	1303.76428	-827.33173	982.87604	1465.22266	-606.05603	1028.42761	1349.78174	-608.40057	1031.50415	1625.95300	-793.22260	682.03192	1610.37610	-806.79242	494.88052	1591.05969	-680.97778	358.11566	1557.14368	-588.98364	156.69633	1495.64380	-563.67029	139.17624	1609.28149	-694.35303	56.60425	1242.52454	-765.59149	670.72614	1291.20093	-770.96436	461.85919	1290.64966	-727.47449	277.31754	1336.88354	-704.72583	87.34958	1394.85413	-670.76184	35.27912	1317.04529	-854.99615	32.18081	1398.83020	-759.31293	1802.49463	-3357.01685	2845.92993	1033.66406			 
